<svg xmlns="http://www.w3.org/2000/svg" width="1200" height="690" viewBox="0 0 1200 690"><rect width="1200" height="690" fill="#f2f5f8"/><style>text{font-family:Arial,Microsoft YaHei,sans-serif;fill:#425466;font-size:12px}.title{font-size:14px;font-weight:600}.hint{fill:#7a8795;font-size:11px}</style><text x="24" y="28" class="title">工服申请仪表盘 · 图表结构示意</text><text x="1175" y="28" text-anchor="end" class="hint">数值已移除 · 图形为示意，不代表业务比例</text><rect x="16" y="44" width="380" height="190" rx="7" fill="white"/><text x="33" y="70" class="title">统发订购结构</text><rect x="41" y="88" width="7" height="7" rx="2" fill="#4b99ed"/><text x="53" y="96" class="hint">上装</text><rect x="121" y="88" width="7" height="7" rx="2" fill="#7bd0cb"/><text x="133" y="96" class="hint">外套</text><rect x="201" y="88" width="7" height="7" rx="2" fill="#9ac76d"/><text x="213" y="96" class="hint">下装</text><path d="M 206 163 L 206.0 108.0 A 55 55 0 0 1 243.65009082607787 203.09327450817761 Z" fill="#4b99ed" stroke="white" stroke-width="2"/><path d="M 206 163 L 243.65009082607787 203.09327450817761 A 55 55 0 0 1 168.34990917392213 203.09327450817764 Z" fill="#7bd0cb" stroke="white" stroke-width="2"/><path d="M 206 163 L 168.34990917392213 203.09327450817764 A 55 55 0 0 1 206.0 108.0 Z" fill="#9ac76d" stroke="white" stroke-width="2"/><rect x="412" y="44" width="380" height="190" rx="7" fill="white"/><text x="429" y="70" class="title">人员构成</text><rect x="437" y="88" width="7" height="7" rx="2" fill="#4b99ed"/><text x="449" y="96" class="hint">类别 A</text><rect x="517" y="88" width="7" height="7" rx="2" fill="#7bd0cb"/><text x="529" y="96" class="hint">类别 B</text><rect x="597" y="88" width="7" height="7" rx="2" fill="#9ac76d"/><text x="609" y="96" class="hint">类别 C</text><path d="M 602 163 L 602.0 108.0 A 55 55 0 0 1 602.0 218.0 Z" fill="#4b99ed" stroke="white" stroke-width="2"/><path d="M 602 163 L 602.0 218.0 A 55 55 0 0 1 549.6918916037665 146.0040653093779 Z" fill="#7bd0cb" stroke="white" stroke-width="2"/><path d="M 602 163 L 549.6918916037665 146.0040653093779 A 55 55 0 0 1 602.0 108.0 Z" fill="#9ac76d" stroke="white" stroke-width="2"/><rect x="808" y="44" width="380" height="190" rx="7" fill="white"/><text x="825" y="70" class="title">补订订购结构</text><rect x="833" y="88" width="7" height="7" rx="2" fill="#4b99ed"/><text x="845" y="96" class="hint">上装</text><rect x="913" y="88" width="7" height="7" rx="2" fill="#7bd0cb"/><text x="925" y="96" class="hint">下装</text><rect x="993" y="88" width="7" height="7" rx="2" fill="#9ac76d"/><text x="1005" y="96" class="hint">配件</text><path d="M 998 163 L 998.0 108.0 A 55 55 0 0 1 1050.3081083962334 179.9959346906221 Z" fill="#4b99ed" stroke="white" stroke-width="2"/><path d="M 998 163 L 1050.3081083962334 179.9959346906221 A 55 55 0 0 1 981.0040653093779 215.30810839623345 Z" fill="#7bd0cb" stroke="white" stroke-width="2"/><path d="M 998 163 L 981.0040653093779 215.30810839623345 A 55 55 0 0 1 943.0 163.0 Z" fill="#9ac76d" stroke="white" stroke-width="2"/><path d="M 998 163 L 943.0 163.0 A 55 55 0 0 1 965.6718111239139 118.50406530937789 Z" fill="#ead978" stroke="white" stroke-width="2"/><path d="M 998 163 L 965.6718111239139 118.50406530937789 A 55 55 0 0 1 998.0 108.0 Z" fill="#cbb2e8" stroke="white" stroke-width="2"/><rect x="16" y="250" width="380" height="422" rx="7" fill="white"/><text x="33" y="276" class="title">各款式订购对比</text><rect x="38" y="296" width="7" height="7" rx="2" fill="#4b99ed"/><text x="50" y="304" class="hint">补订</text><rect x="118" y="296" width="7" height="7" rx="2" fill="#7bd0cb"/><text x="130" y="304" class="hint">统发</text><text x="35" y="342" class="hint">款式 A</text><rect x="108" y="330" width="140" height="8" rx="3" fill="#4b99ed"/><rect x="108" y="342" width="185" height="8" rx="3" fill="#7bd0cb"/><text x="35" y="381" class="hint">款式 B</text><rect x="108" y="369" width="190" height="8" rx="3" fill="#4b99ed"/><rect x="108" y="381" width="134" height="8" rx="3" fill="#7bd0cb"/><text x="35" y="420" class="hint">款式 C</text><rect x="108" y="408" width="120" height="8" rx="3" fill="#4b99ed"/><rect x="108" y="420" width="163" height="8" rx="3" fill="#7bd0cb"/><text x="35" y="459" class="hint">款式 D</text><rect x="108" y="447" width="170" height="8" rx="3" fill="#4b99ed"/><rect x="108" y="459" width="198" height="8" rx="3" fill="#7bd0cb"/><text x="35" y="498" class="hint">款式 E</text><rect x="108" y="486" width="94" height="8" rx="3" fill="#4b99ed"/><rect x="108" y="498" width="115" height="8" rx="3" fill="#7bd0cb"/><text x="35" y="537" class="hint">款式 F</text><rect x="108" y="525" width="154" height="8" rx="3" fill="#4b99ed"/><rect x="108" y="537" width="175" height="8" rx="3" fill="#7bd0cb"/><text x="35" y="576" class="hint">款式 G</text><rect x="108" y="564" width="125" height="8" rx="3" fill="#4b99ed"/><rect x="108" y="576" width="155" height="8" rx="3" fill="#7bd0cb"/><text x="35" y="615" class="hint">款式 H</text><rect x="108" y="603" width="105" height="8" rx="3" fill="#4b99ed"/><rect x="108" y="615" width="130" height="8" rx="3" fill="#7bd0cb"/><rect x="412" y="250" width="380" height="195" rx="7" fill="white"/><text x="429" y="276" class="title">月度订购金额趋势</text><rect x="433" y="293" width="7" height="7" rx="2" fill="#4b99ed"/><text x="445" y="301" class="hint">周期 A</text><rect x="513" y="293" width="7" height="7" rx="2" fill="#7bd0cb"/><text x="525" y="301" class="hint">周期 B</text><rect x="456" y="349" width="17" height="60" fill="#4b99ed"/><rect x="476" y="323" width="17" height="86" fill="#7bd0cb"/><rect x="518" y="364" width="17" height="45" fill="#4b99ed"/><rect x="538" y="345" width="17" height="64" fill="#7bd0cb"/><rect x="580" y="331" width="17" height="78" fill="#4b99ed"/><rect x="600" y="362" width="17" height="47" fill="#7bd0cb"/><rect x="642" y="371" width="17" height="38" fill="#4b99ed"/><rect x="662" y="352" width="17" height="57" fill="#7bd0cb"/><rect x="704" y="344" width="17" height="65" fill="#4b99ed"/><rect x="724" y="329" width="17" height="80" fill="#7bd0cb"/><rect x="808" y="250" width="380" height="195" rx="7" fill="white"/><text x="825" y="276" class="title">补订需求审核状态</text><rect x="829" y="293" width="7" height="7" rx="2" fill="#4b99ed"/><text x="841" y="301" class="hint">已通过</text><rect x="909" y="293" width="7" height="7" rx="2" fill="#7bd0cb"/><text x="921" y="301" class="hint">待审核</text><text x="830" y="342" class="hint">场景 A</text><rect x="892" y="334" width="198" height="9" rx="3" fill="#4b99ed"/><rect x="892" y="348" width="46" height="9" rx="3" fill="#7bd0cb"/><text x="830" y="389" class="hint">场景 B</text><rect x="892" y="381" width="146" height="9" rx="3" fill="#4b99ed"/><rect x="892" y="395" width="82" height="9" rx="3" fill="#7bd0cb"/><rect x="412" y="461" width="380" height="211" rx="7" fill="white"/><text x="429" y="487" class="title">补订金额趋势</text><rect x="433" y="506" width="7" height="7" rx="2" fill="#4b99ed"/><text x="445" y="514" class="hint">周期 A</text><rect x="513" y="506" width="7" height="7" rx="2" fill="#7bd0cb"/><text x="525" y="514" class="hint">周期 B</text><path d="M 437 546 H 762" stroke="#edf1f5"/><path d="M 437 584 H 762" stroke="#edf1f5"/><path d="M 437 622 H 762" stroke="#edf1f5"/><polyline points="440,604 485,570 530,586 575,550 620,577 665,592 710,558 755,580" fill="none" stroke="#4b99ed" stroke-width="3"/><polyline points="440,612 485,595 530,563 575,580 620,554 665,574 710,596 755,568" fill="none" stroke="#7bd0cb" stroke-width="3"/><text x="437" y="652" class="hint">展示趋势关系，不展示真实数值或业务规模</text><rect x="808" y="461" width="380" height="211" rx="7" fill="white"/><text x="825" y="487" class="title">各职位订购分布</text><rect x="829" y="506" width="7" height="7" rx="2" fill="#4b99ed"/><text x="841" y="514" class="hint">周期 A</text><rect x="909" y="506" width="7" height="7" rx="2" fill="#7bd0cb"/><text x="921" y="514" class="hint">周期 B</text><path d="M 833 546 H 1158" stroke="#edf1f5"/><path d="M 833 584 H 1158" stroke="#edf1f5"/><path d="M 833 622 H 1158" stroke="#edf1f5"/><polyline points="836,604 881,570 926,586 971,550 1016,577 1061,592 1106,558 1151,580" fill="none" stroke="#4b99ed" stroke-width="3"/><polyline points="836,612 881,595 926,563 971,580 1016,554 1061,574 1106,596 1151,568" fill="none" stroke="#7bd0cb" stroke-width="3"/><text x="833" y="652" class="hint">展示趋势关系，不展示真实数值或业务规模</text></svg>